# Blender v3.3.1 OBJ File: ''
# www.blender.org
mtllib Escenario 3 chocorramosurvivor-0-1.mtl
o Escenario_3_chocorramosurvivor-0-1
v 8.400000 0.000000 -3.900000
v 8.400000 0.000000 -3.700000
v 8.400000 0.200000 -3.700000
v 8.800000 0.000000 -3.900000
v 8.800000 0.200000 -3.700000
v 8.700000 0.200000 -4.000000
v 8.800000 0.200000 -3.900000
v 8.700000 0.200000 -3.600000
v 8.500000 0.000000 -3.700000
v 8.500000 0.000000 -3.600000
v 8.700000 0.000000 -3.900000
v 8.500000 0.000000 -4.000000
v 8.700000 0.000000 -3.700000
v 8.700000 0.000000 -4.000000
v 8.700000 0.000000 -3.600000
v 8.500000 0.000000 -3.900000
v 8.800000 0.000000 -3.700000
v 8.500000 0.200000 -3.900000
v 8.400000 0.200000 -3.900000
v 8.700000 0.200000 -3.700000
v 8.500000 0.200000 -3.600000
v 8.500000 0.200000 -3.700000
v 8.700000 0.200000 -3.900000
v 8.500000 0.200000 -4.000000
vt 0.437501 0.000000
vt 0.375000 0.125000
vt 0.375000 0.000000
vt 0.250000 0.375000
vt 0.375000 0.250000
vt 0.250000 0.250000
vt 0.062500 0.187500
vt 0.187500 0.187500
vt 0.187500 0.062500
vt 0.187500 0.312500
vt 0.187500 0.437500
vt 0.062500 0.437500
vt 0.375000 0.500000
vt 0.437500 0.375000
vt 0.375000 0.375000
vt 0.437500 0.375000
vt 0.500000 0.250000
vt 0.437500 0.250000
vt 0.437500 0.500000
vt 0.500000 0.375000
vt 0.500000 0.250000
vt 0.437501 0.125000
vt 0.500000 0.125000
vt 0.250000 0.125000
vt 0.375000 0.000000
vt 0.250000 0.000000
vt 0.250000 0.500000
vt 0.375000 0.375000
vt 0.375000 0.500000
vt 0.500001 0.125000
vt 0.437501 0.000000
vt 0.500001 0.000000
vt 0.375000 0.375000
vt 0.437500 0.250000
vt 0.375000 0.250000
vt 0.375000 0.125000
vt 0.250000 0.250000
vt 0.250000 0.125000
vt 0.437501 0.250000
vt 0.375000 0.125000
vt 0.437501 0.125000
vt 0.437501 0.125000
vt 0.375000 0.375000
vt 0.187500 0.000000
vt 0.062500 0.000000
vt 0.062500 0.062500
vt 0.000000 0.062500
vt 0.000000 0.187500
vt 0.062500 0.250000
vt 0.187500 0.250000
vt 0.250000 0.187500
vt 0.250000 0.062500
vt 0.000000 0.437500
vt 0.000000 0.312500
vt 0.062500 0.312500
vt 0.062500 0.250000
vt 0.187500 0.250000
vt 0.250000 0.312500
vt 0.250000 0.437500
vt 0.187500 0.500000
vt 0.062500 0.500000
vt 0.500000 0.375000
vt 0.500000 0.500000
vt 0.437501 0.250000
vt 0.375000 0.125000
vt 0.250000 0.375000
vt 0.437501 0.125000
vt 0.437500 0.375000
vt 0.375000 0.250000
vt 0.375000 0.250000
vn 0.0000 0.0000 1.0000
vn 0.0000 0.0000 -1.0000
vn 0.0000 -1.0000 0.0000
vn 0.0000 1.0000 0.0000
vn -1.0000 0.0000 0.0000
vn 1.0000 0.0000 0.0000
usemtl Escenario_3_chocorramosurvivor-0-1_Material
s off
f 17/1/1 20/2/1 13/3/1
f 24/4/2 14/5/2 12/6/2
f 16/7/3 11/8/3 13/9/3
f 20/10/4 23/11/4 18/12/4
f 19/13/2 16/14/2 1/15/2
f 21/16/5 9/17/5 10/18/5
f 18/19/5 12/20/5 16/14/5
f 6/21/6 11/22/6 14/23/6
f 3/24/5 1/25/5 2/26/5
f 21/27/1 15/28/1 8/29/1
f 20/30/6 15/31/6 13/32/6
f 23/33/2 4/34/2 11/35/2
f 4/36/6 5/37/6 17/38/6
f 22/39/1 2/40/1 9/41/1
f 17/1/1 5/42/1 20/2/1
f 24/4/2 6/43/2 14/5/2
f 15/44/3 10/45/3 9/46/3
f 9/46/3 2/47/3 1/48/3
f 16/7/3 12/49/3 14/50/3
f 9/46/3 1/48/3 16/7/3
f 13/9/3 15/44/3 9/46/3
f 4/51/3 17/52/3 13/9/3
f 16/7/3 14/50/3 11/8/3
f 11/8/3 4/51/3 13/9/3
f 13/9/3 9/46/3 16/7/3
f 19/53/4 3/54/4 22/55/4
f 22/55/4 21/56/4 8/57/4
f 20/10/4 5/58/4 7/59/4
f 22/55/4 8/57/4 20/10/4
f 18/12/4 19/53/4 22/55/4
f 6/60/4 24/61/4 18/12/4
f 20/10/4 7/59/4 23/11/4
f 23/11/4 6/60/4 18/12/4
f 18/12/4 22/55/4 20/10/4
f 19/13/2 18/19/2 16/14/2
f 21/16/5 22/62/5 9/17/5
f 18/19/5 24/63/5 12/20/5
f 6/21/6 23/64/6 11/22/6
f 3/24/5 19/65/5 1/25/5
f 21/27/1 10/66/1 15/28/1
f 20/30/6 8/67/6 15/31/6
f 23/33/2 7/68/2 4/34/2
f 4/36/6 7/69/6 5/37/6
f 22/39/1 3/70/1 2/40/1
