# Blender v3.3.1 OBJ File: ''
# www.blender.org
mtllib Escenario 3 chocorramosurvivor-6.mtl
o Escenario_3_chocorramosurvivor-6
v 17.100000 2.300000 -1.500000
v 14.000000 1.100000 1.300000
v 17.200001 0.100000 1.300000
v 17.200001 0.100000 -1.700000
v 17.400000 1.000000 1.300000
v 14.100000 1.100000 1.300000
v 14.300000 0.500000 -1.500000
v 14.200000 0.100000 1.300000
v 17.100000 0.500000 -1.500000
v 14.000000 2.300000 1.300000
v 17.299999 1.000000 1.300000
v 17.400000 2.300000 1.300000
v 14.100000 2.200000 1.300000
v 17.200001 2.200000 1.300000
v 14.300000 2.300000 -1.500000
v 14.200000 0.100000 -1.700000
v 17.400000 1.000000 -1.700000
v 14.300000 2.300000 1.100000
v 14.100000 2.200000 -1.700000
v 17.299999 2.200000 -1.700000
v 17.100000 0.500000 1.100000
v 14.100000 1.100000 -1.700000
v 17.299999 1.000000 -1.700000
v 14.200000 2.200000 -1.700000
v 14.200000 2.200000 1.300000
v 17.299999 2.200000 1.300000
v 17.200001 2.200000 -1.700000
v 14.000000 1.100000 -1.700000
v 14.000000 2.300000 -1.700000
v 17.400000 2.300000 -1.700000
v 17.100000 2.300000 1.100000
v 14.300000 0.500000 1.100000
vt 0.000000 0.468750
vt 0.234375 0.234375
vt 0.000000 0.234375
vt 0.500000 0.234375
vt 0.718750 0.375000
vt 0.500000 0.375000
vt 0.234375 0.609375
vt 0.453125 0.406250
vt 0.453125 0.609375
vt 0.734375 0.140625
vt 0.531250 0.000000
vt 0.531250 0.140625
vt 0.531250 0.070312
vt 0.531250 0.171875
vt 0.523437 0.164062
vt 0.234375 0.632812
vt 0.000000 0.468750
vt 0.000000 0.632812
vt 0.671875 0.710938
vt 0.453125 0.570312
vt 0.453125 0.710938
vt 0.000000 0.734375
vt 0.234375 0.820313
vt 0.000000 0.820313
vt 0.000000 0.000000
vt 0.023438 0.015625
vt 0.000000 0.234375
vt 0.703125 0.640625
vt 0.695313 0.406250
vt 0.695313 0.640625
vt 0.242188 0.218750
vt 0.265625 0.000000
vt 0.265625 0.234375
vt 0.453125 0.710937
vt 0.687500 0.804687
vt 0.687500 0.710937
vt 0.234375 0.312500
vt 0.234375 0.406250
vt 0.242188 0.398438
vt 0.234375 0.609375
vt 0.437500 0.750000
vt 0.234375 0.750000
vt 0.687500 0.406250
vt 0.453125 0.570312
vt 0.453125 0.406250
vt 0.765625 0.140625
vt 0.531250 0.234375
vt 0.765625 0.234375
vt 0.234375 0.632813
vt 0.000000 0.734375
vt 0.000000 0.632813
vt 0.718750 0.640625
vt 0.710938 0.406250
vt 0.710938 0.640625
vt 0.703125 0.640625
vt 0.710938 0.406250
vt 0.703125 0.406250
vt 0.695313 0.640625
vt 0.687500 0.406250
vt 0.687500 0.640625
vt 0.234375 0.468750
vt 0.718750 0.234375
vt 0.234375 0.406250
vt 0.734375 0.000000
vt 0.281250 0.164062
vt 0.281250 0.000000
vt 0.515625 0.000000
vt 0.515625 0.164062
vt 0.265625 0.078125
vt 0.273438 0.078125
vt 0.273438 0.164062
vt 0.265625 0.171875
vt 0.523437 0.070312
vt 0.234375 0.468750
vt 0.671875 0.570312
vt 0.234375 0.734375
vt 0.023438 0.218750
vt 0.703125 0.406250
vt 0.242188 0.015625
vt 0.453125 0.804687
vt 0.484375 0.398438
vt 0.484375 0.234375
vt 0.250000 0.234375
vt 0.250000 0.398438
vt 0.500000 0.304688
vt 0.492188 0.304688
vt 0.492188 0.398438
vt 0.500000 0.406250
vt 0.242188 0.312500
vt 0.437500 0.609375
vt 0.687500 0.570312
vt 0.531250 0.140625
vt 0.234375 0.734375
vt 0.718750 0.406250
vt 0.710938 0.640625
vt 0.695313 0.406250
vn 0.0000 -1.0000 0.0000
vn 0.0000 0.0000 1.0000
vn 0.0000 1.0000 0.0000
vn -1.0000 0.0000 0.0000
vn 0.0000 0.0000 -1.0000
vn 1.0000 0.0000 0.0000
usemtl Escenario_3_chocorramosurvivor-6_Material
s off
f 16/1/1 3/2/1 8/3/1
f 7/4/2 1/5/2 15/6/2
f 7/7/3 21/8/3 9/9/3
f 1/10/4 21/11/4 31/12/4
f 5/13/2 12/14/2 26/15/2
f 24/16/4 8/17/4 25/18/4
f 31/19/5 32/20/5 18/21/5
f 6/22/6 19/23/6 13/24/6
f 10/25/3 18/26/3 29/27/3
f 17/28/1 11/29/1 23/30/1
f 1/31/3 12/32/3 30/33/3
f 2/34/4 29/35/4 28/36/4
f 28/37/5 29/38/5 19/39/5
f 32/40/6 15/41/6 18/42/6
f 4/43/6 14/44/6 3/45/6
f 23/46/4 26/47/4 20/48/4
f 17/49/6 12/50/6 5/51/6
f 20/52/1 14/53/1 27/54/1
f 19/55/1 25/56/1 13/57/1
f 22/58/1 2/59/1 28/60/1
f 16/1/1 4/61/1 3/2/1
f 7/4/2 9/62/2 1/5/2
f 7/7/3 32/63/3 21/8/3
f 1/10/4 9/64/4 21/11/4
f 25/65/2 8/66/2 3/67/2
f 25/65/2 3/67/2 14/68/2
f 2/69/2 6/70/2 13/71/2
f 25/65/2 14/68/2 12/14/2
f 14/68/2 26/15/2 12/14/2
f 10/72/2 2/69/2 13/71/2
f 13/71/2 25/65/2 10/72/2
f 12/14/2 10/72/2 25/65/2
f 11/73/2 5/13/2 26/15/2
f 24/16/4 16/74/4 8/17/4
f 31/19/5 21/75/5 32/20/5
f 6/22/6 22/76/6 19/23/6
f 10/25/3 12/32/3 18/26/3
f 18/26/3 15/77/3 29/27/3
f 17/28/1 5/78/1 11/29/1
f 29/27/3 15/77/3 30/33/3
f 15/77/3 1/31/3 30/33/3
f 31/79/3 18/26/3 12/32/3
f 1/31/3 31/79/3 12/32/3
f 2/34/4 10/80/4 29/35/4
f 27/81/5 4/82/5 16/83/5
f 27/81/5 16/83/5 24/84/5
f 17/85/5 23/86/5 20/87/5
f 27/81/5 24/84/5 29/38/5
f 24/84/5 19/39/5 29/38/5
f 30/88/5 17/85/5 20/87/5
f 20/87/5 27/81/5 30/88/5
f 29/38/5 30/88/5 27/81/5
f 22/89/5 28/37/5 19/39/5
f 32/40/6 7/90/6 15/41/6
f 4/43/6 27/91/6 14/44/6
f 23/46/4 11/92/4 26/47/4
f 17/49/6 30/93/6 12/50/6
f 20/52/1 26/94/1 14/53/1
f 19/55/1 24/95/1 25/56/1
f 22/58/1 6/96/1 2/59/1
