# Blender v3.3.1 OBJ File: ''
# www.blender.org
mtllib Escenario 3 chocorramosurvivor-0.mtl
o Escenario_3_chocorramosurvivor-0_Escenario_3_chocorramosurvivor-0.004
v -4.200000 2.500000 -3.400000
v -4.200000 2.500000 1.200000
v -4.200000 2.500000 0.800000
v -4.200000 2.500000 0.600000
v -4.200000 2.500000 -1.400000
v -4.200000 2.500000 0.400000
v -4.200000 2.500000 0.200000
v -4.200000 2.500000 -1.000000
v -4.200000 2.500000 -0.800000
v -4.200000 2.500000 -0.200000
v -4.200000 5.500000 -2.400000
v -4.200000 5.500000 -0.600000
v -4.200000 5.500000 0.000000
v -4.200000 5.500000 -1.000000
v -4.200000 5.500000 0.600000
v -4.200000 5.500000 -2.000000
v -4.200000 5.500000 -2.800000
v -4.200000 5.500000 2.200000
v -4.200000 5.500000 2.000000
v -4.200000 5.500000 2.600000
v -4.200000 5.500000 2.400000
v -4.000000 2.500000 2.400000
v -4.000000 2.500000 -2.800000
v -4.000000 2.500000 1.600000
v -4.000000 2.500000 1.400000
v -4.000000 2.500000 -1.800000
v -4.000000 2.500000 0.800000
v -4.000000 2.500000 -1.400000
v -4.000000 2.500000 0.400000
v -4.000000 2.500000 0.000000
v -4.000000 2.500000 -0.600000
v -4.000000 5.500000 1.200000
v -4.000000 5.500000 0.000000
v -4.000000 5.500000 0.400000
v -4.000000 5.500000 -2.000000
v -4.000000 5.500000 -3.200000
v -4.000000 5.500000 -3.000000
v -4.000000 5.500000 2.600000
v -4.000000 5.500000 2.400000
v -4.000000 5.500000 -3.400000
v -4.000000 5.500000 -0.200000
v -4.200000 5.500000 -0.200000
v -4.000000 2.500000 2.600000
v -4.000000 2.500000 -3.400000
v -4.200000 2.500000 -3.000000
v -4.000000 2.500000 -3.000000
v -4.000000 2.500000 2.200000
v -4.000000 2.500000 1.800000
v -4.200000 2.500000 -2.600000
v -4.200000 2.500000 -2.200000
v -4.000000 2.500000 -2.200000
v -4.000000 2.500000 0.600000
v -4.000000 2.500000 -1.000000
v -4.000000 2.500000 -0.200000
v -4.200000 2.500000 -0.600000
v -4.200000 5.500000 -2.200000
v -4.000000 5.500000 -2.200000
v -4.000000 5.500000 1.400000
v -4.000000 5.500000 0.200000
v -4.200000 5.500000 0.200000
v -4.000000 5.500000 -1.000000
v -4.200000 5.500000 -1.400000
v -4.200000 5.500000 1.000000
v -4.000000 5.500000 1.000000
v -4.200000 5.500000 -1.800000
v -4.000000 5.500000 -1.800000
v -4.200000 5.500000 -2.600000
v -4.200000 5.500000 -3.400000
v -4.200000 2.500000 2.400000
v -4.200000 2.500000 2.000000
v -4.200000 2.500000 1.600000
v -4.000000 2.500000 1.200000
v -4.000000 2.500000 -2.000000
v -4.000000 2.500000 -1.600000
v -4.000000 2.500000 -1.200000
v -4.200000 2.500000 0.000000
v -4.200000 5.500000 1.200000
v -4.200000 5.500000 -0.800000
v -4.200000 5.500000 -0.400000
v -4.000000 5.500000 -1.200000
v -4.200000 5.500000 1.600000
v -4.200000 5.500000 -3.600000
v -4.200000 2.500000 -3.600000
v -4.000000 2.500000 -3.600000
v -4.200000 2.500000 2.600000
v -4.000000 2.500000 2.000000
v -4.200000 2.500000 -3.200000
v -4.000000 2.500000 -3.200000
v -4.200000 2.500000 2.200000
v -4.200000 2.500000 -2.800000
v -4.200000 2.500000 1.800000
v -4.000000 2.500000 -2.600000
v -4.200000 2.500000 -2.400000
v -4.000000 2.500000 -2.400000
v -4.200000 2.500000 1.400000
v -4.200000 2.500000 -2.000000
v -4.200000 2.500000 1.000000
v -4.000000 2.500000 1.000000
v -4.200000 2.500000 -1.800000
v -4.200000 2.500000 -1.600000
v -4.200000 2.500000 -1.200000
v -4.000000 2.500000 0.200000
v -4.000000 2.500000 -0.800000
v -4.200000 2.500000 -0.400000
v -4.000000 2.500000 -0.400000
v -4.000000 5.500000 -0.800000
v -4.000000 5.500000 -2.400000
v -4.200000 5.500000 1.400000
v -4.000000 5.500000 -0.400000
v -4.000000 5.500000 -0.600000
v -4.200000 5.500000 -1.200000
v -4.000000 5.500000 0.600000
v -4.000000 5.500000 -1.600000
v -4.200000 5.500000 -1.600000
v -4.200000 5.500000 0.400000
v -4.000000 5.500000 -1.400000
v -4.200000 5.500000 0.800000
v -4.000000 5.500000 0.800000
v -4.000000 5.500000 1.600000
v -4.000000 5.500000 -2.600000
v -4.200000 5.500000 1.800000
v -4.000000 5.500000 1.800000
v -4.000000 5.500000 -2.800000
v -4.000000 5.500000 2.200000
v -4.200000 5.500000 -3.200000
v -4.000000 5.500000 2.000000
v -4.200000 5.500000 -3.000000
v -4.000000 5.500000 -3.600000
vt 0.562500 0.000000
vt 0.593750 0.468750
vt 0.562500 0.468750
vt 0.343750 0.968750
vt 0.312500 0.937500
vt 0.312500 0.968750
vt 0.093750 0.968750
vt 0.125000 0.937500
vt 0.093750 0.937500
vt 0.656250 0.468750
vt 0.625000 0.937500
vt 0.656250 0.937500
vt 0.781250 0.000000
vt 0.750000 0.468750
vt 0.750000 0.000000
vt 0.312500 0.937500
vt 0.281250 0.968750
vt 0.312500 0.968750
vt 0.843750 0.937500
vt 0.812500 0.468750
vt 0.812500 0.937500
vt 0.562500 0.468750
vt 0.531250 0.937500
vt 0.531250 0.468750
vt 0.468750 0.937500
vt 0.500000 0.468750
vt 0.500000 0.937500
vt 0.656250 0.468750
vt 0.687500 0.000000
vt 0.656250 0.000000
vt 0.031250 0.968750
vt 0.000000 0.937500
vt 0.031250 0.937500
vt 0.187500 0.468750
vt 0.218750 0.000000
vt 0.187500 0.000000
vt 0.093750 0.937500
vt 0.062500 0.968750
vt 0.093750 0.968750
vt 0.687500 0.968750
vt 0.656250 0.937500
vt 0.687500 0.937500
vt 0.750000 0.937500
vt 0.718750 0.968750
vt 0.718750 0.937500
vt 0.187500 0.937500
vt 0.156250 0.968750
vt 0.187500 0.968750
vt 0.468750 0.468750
vt 0.437500 0.000000
vt 0.468750 0.000000
vt 0.218750 0.468750
vt 0.250000 0.000000
vt 0.218750 0.000000
vt 0.375000 0.968750
vt 0.406250 0.937500
vt 0.406250 0.968750
vt 0.281250 0.468750
vt 0.312500 0.937500
vt 0.281250 0.937500
vt 0.062500 0.468750
vt 0.031250 0.000000
vt 0.062500 0.000000
vt 0.718750 0.468750
vt 0.750000 0.000000
vt 0.718750 0.000000
vt 0.781250 0.468750
vt 0.812500 0.000000
vt 0.781250 0.000000
vt 0.406250 0.468750
vt 0.375000 0.937500
vt 0.375000 0.468750
vt 0.906250 0.468750
vt 0.875000 0.000000
vt 0.875000 0.468750
vt 0.843750 0.468750
vt 0.812500 0.000000
vt 0.812500 0.468750
vt 0.843750 0.937500
vt 0.812500 0.968750
vt 0.843750 0.968750
vt 0.875000 0.968750
vt 0.843750 0.937500
vt 0.843750 0.968750
vt 0.218750 0.937500
vt 0.187500 0.468750
vt 0.218750 0.468750
vt 0.500000 0.000000
vt 0.531250 0.468750
vt 0.531250 0.000000
vt 0.187500 0.968750
vt 0.218750 0.937500
vt 0.187500 0.937500
vt 0.531250 0.968750
vt 0.562500 0.937500
vt 0.562500 0.968750
vt 0.468750 0.968750
vt 0.500000 0.937500
vt 0.500000 0.968750
vt 0.625000 0.468750
vt 0.593750 0.000000
vt 0.625000 0.000000
vt 0.562500 0.937500
vt 0.593750 0.968750
vt 0.593750 0.937500
vt 0.531250 0.968750
vt 0.500000 0.937500
vt 0.500000 0.968750
vt 0.875000 0.468750
vt 0.843750 0.000000
vt 0.843750 0.468750
vt 0.500000 0.937500
vt 0.531250 0.468750
vt 0.531250 0.937500
vt 0.687500 0.468750
vt 0.718750 0.937500
vt 0.718750 0.468750
vt 0.375000 0.937500
vt 0.343750 0.968750
vt 0.343750 0.937500
vt 0.031250 0.937500
vt 0.062500 0.468750
vt 0.062500 0.937500
vt 0.812500 0.968750
vt 0.781250 0.937500
vt 0.812500 0.937500
vt 0.250000 0.968750
vt 0.218750 0.937500
vt 0.250000 0.937500
vt 0.750000 0.937500
vt 0.781250 0.968750
vt 0.781250 0.937500
vt 0.625000 0.468750
vt 0.656250 0.000000
vt 0.656250 0.468750
vt 0.312500 0.937500
vt 0.343750 0.468750
vt 0.343750 0.937500
vt 0.375000 0.468750
vt 0.406250 0.000000
vt 0.406250 0.468750
vt 0.468750 0.968750
vt 0.437500 0.937500
vt 0.468750 0.937500
vt 0.187500 0.937500
vt 0.156250 0.468750
vt 0.187500 0.468750
vt 0.250000 0.937500
vt 0.281250 0.468750
vt 0.281250 0.937500
vt 0.937500 0.937500
vt 0.906250 0.968750
vt 0.906250 0.937500
vt 0.937500 0.468750
vt 0.968750 0.000000
vt 0.937500 0.000000
vt 0.187500 0.000000
vt 0.156250 0.468750
vt 0.187500 0.468750
vt 0.687500 0.937500
vt 0.656250 0.468750
vt 0.656250 0.937500
vt 0.281250 0.000000
vt 0.250000 0.468750
vt 0.250000 0.000000
vt 0.156250 0.468750
vt 0.125000 0.937500
vt 0.125000 0.468750
vt 0.406250 0.937500
vt 0.437500 0.468750
vt 0.437500 0.937500
vt 0.031250 1.000000
vt 0.000000 0.968750
vt 0.031250 0.968750
vt 0.937500 0.937500
vt 0.968750 0.968750
vt 0.937500 0.968750
vt 0.968750 0.468750
vt 1.000000 0.000000
vt 0.968750 0.000000
vt 0.125000 0.968750
vt 0.156250 0.937500
vt 0.125000 0.937500
vt 0.125000 0.000000
vt 0.156250 0.468750
vt 0.156250 0.000000
vt 0.562500 0.937500
vt 0.593750 0.468750
vt 0.562500 0.468750
vt 0.468750 0.468750
vt 0.781250 0.468750
vt 0.750000 0.937500
vt 0.781250 0.937500
vt 0.000000 0.937500
vt 0.031250 0.468750
vt 0.031250 0.937500
vt 0.625000 0.968750
vt 0.656250 0.937500
vt 0.656250 0.968750
vt 0.031250 0.468750
vt 0.000000 0.000000
vt 0.000000 0.468750
vt 0.218750 0.937500
vt 0.250000 0.468750
vt 0.250000 0.937500
vt 0.406250 0.937500
vt 0.437500 0.968750
vt 0.406250 0.968750
vt 0.343750 0.937500
vt 0.375000 0.468750
vt 0.375000 0.937500
vt 0.343750 0.000000
vt 0.312500 0.468750
vt 0.343750 0.468750
vt 0.500000 0.468750
vt 0.468750 0.000000
vt 0.500000 0.000000
vt 0.375000 0.468750
vt 0.343750 0.000000
vt 0.343750 0.468750
vt 0.875000 0.968750
vt 0.906250 0.937500
vt 0.875000 0.937500
vt 0.281250 0.000000
vt 0.312500 0.468750
vt 0.281250 0.468750
vt 0.062500 0.937500
vt 0.093750 0.468750
vt 0.093750 0.937500
vt 0.843750 0.937500
vt 0.875000 0.468750
vt 0.843750 0.468750
vt 0.718750 0.468750
vt 0.687500 0.000000
vt 0.687500 0.468750
vt 0.250000 0.937500
vt 0.281250 0.968750
vt 0.281250 0.937500
vt 0.750000 0.468750
vt 0.718750 0.937500
vt 0.750000 0.937500
vt 0.593750 0.468750
vt 0.625000 0.937500
vt 0.625000 0.468750
vt 0.625000 0.968750
vt 0.593750 0.937500
vt 0.593750 0.968750
vt 0.937500 0.937500
vt 0.968750 0.468750
vt 0.937500 0.468750
vt 0.125000 0.937500
vt 0.093750 0.468750
vt 0.125000 0.468750
vt 0.906250 0.468750
vt 0.937500 0.000000
vt 0.937500 0.468750
vt 0.906250 0.937500
vt 0.875000 0.468750
vt 0.875000 0.937500
vt 0.781250 0.468750
vt 0.812500 0.937500
vt 0.812500 0.468750
vt 0.437500 0.468750
vt 0.406250 0.000000
vt 0.437500 0.000000
vt 0.531250 0.468750
vt 0.562500 0.000000
vt 0.562500 0.468750
vt 0.906250 0.937500
vt 0.937500 0.468750
vt 0.906250 0.468750
vt 0.718750 0.937500
vt 0.687500 0.968750
vt 0.718750 0.968750
vt 0.031250 0.968750
vt 0.062500 0.937500
vt 0.062500 0.968750
vt 0.968750 0.937500
vt 1.000000 0.468750
vt 0.968750 0.468750
vt 0.062500 0.468750
vt 0.093750 0.000000
vt 0.093750 0.468750
vt 0.125000 0.468750
vt 0.093750 0.000000
vt 0.093750 0.468750
vt 0.593750 0.000000
vt 0.343750 0.937500
vt 0.125000 0.968750
vt 0.625000 0.468750
vt 0.781250 0.468750
vt 0.281250 0.937500
vt 0.843750 0.468750
vt 0.562500 0.937500
vt 0.468750 0.468750
vt 0.687500 0.468750
vt 0.000000 0.968750
vt 0.218750 0.468750
vt 0.062500 0.937500
vt 0.656250 0.968750
vt 0.750000 0.968750
vt 0.156250 0.937500
vt 0.437500 0.468750
vt 0.250000 0.468750
vt 0.312500 0.468750
vt 0.031250 0.468750
vt 0.750000 0.468750
vt 0.812500 0.468750
vt 0.906250 0.000000
vt 0.843750 0.000000
vt 0.812500 0.937500
vt 0.875000 0.937500
vt 0.187500 0.937500
vt 0.500000 0.468750
vt 0.218750 0.968750
vt 0.531250 0.937500
vt 0.468750 0.937500
vt 0.593750 0.468750
vt 0.562500 0.968750
vt 0.531250 0.937500
vt 0.875000 0.000000
vt 0.500000 0.468750
vt 0.687500 0.937500
vt 0.375000 0.968750
vt 0.031250 0.468750
vt 0.781250 0.968750
vt 0.218750 0.968750
vt 0.750000 0.968750
vt 0.625000 0.000000
vt 0.312500 0.468750
vt 0.375000 0.000000
vt 0.437500 0.968750
vt 0.156250 0.937500
vt 0.250000 0.468750
vt 0.937500 0.968750
vt 0.968750 0.468750
vt 0.156250 0.000000
vt 0.687500 0.468750
vt 0.281250 0.468750
vt 0.156250 0.937500
vt 0.406250 0.468750
vt 0.000000 1.000000
vt 0.968750 0.937500
vt 1.000000 0.468750
vt 0.156250 0.968750
vt 0.125000 0.468750
vt 0.593750 0.937500
vt 0.437500 0.468750
vt 0.750000 0.468750
vt 0.000000 0.468750
vt 0.625000 0.937500
vt 0.031250 0.000000
vt 0.218750 0.468750
vt 0.437500 0.937500
vt 0.343750 0.468750
vt 0.312500 0.000000
vt 0.468750 0.468750
vt 0.375000 0.000000
vt 0.906250 0.968750
vt 0.312500 0.000000
vt 0.062500 0.468750
vt 0.875000 0.937500
vt 0.718750 0.000000
vt 0.250000 0.968750
vt 0.718750 0.468750
vt 0.593750 0.937500
vt 0.625000 0.937500
vt 0.968750 0.937500
vt 0.093750 0.937500
vt 0.906250 0.000000
vt 0.906250 0.468750
vt 0.781250 0.937500
vt 0.406250 0.468750
vt 0.531250 0.000000
vt 0.937500 0.937500
vt 0.687500 0.937500
vt 0.031250 0.937500
vt 1.000000 0.937500
vt 0.062500 0.000000
vt 0.125000 0.000000
vn 1.0000 0.0000 0.0000
vn 0.0000 -1.0000 0.0000
vn 0.0000 0.0000 -1.0000
vn 0.0000 0.0000 1.0000
vn -1.0000 0.0000 0.0000
vn 0.0000 1.0000 0.0000
usemtl Escenario_3_chocorramosurvivor-0_Material.002
s off
f 102/1/1 33/2/1 59/3/1
f 74/4/2 5/5/2 100/6/2
f 70/7/2 47/8/2 89/9/2
f 22/10/3 21/11/3 39/12/3
f 29/13/1 112/14/1 52/15/1
f 98/16/2 3/17/2 27/18/2
f 32/19/3 2/20/3 77/21/3
f 31/22/4 12/23/4 55/24/4
f 60/25/4 102/26/4 59/27/4
f 12/28/5 9/29/5 55/30/5
f 36/31/6 127/32/6 37/33/6
f 121/34/5 71/35/5 91/36/5
f 46/37/2 87/38/2 88/39/2
f 80/40/6 14/41/6 61/42/6
f 110/43/6 78/44/6 12/45/6
f 48/46/2 71/47/2 24/48/2
f 123/49/1 92/50/1 23/51/1
f 56/52/5 93/53/5 50/54/5
f 16/55/6 66/56/6 35/57/6
f 95/58/4 58/59/4 108/60/4
f 113/61/1 28/62/1 74/63/1
f 14/64/5 101/65/5 8/66/5
f 15/67/5 6/68/5 4/69/5
f 26/70/4 65/71/4 99/72/4
f 77/73/5 95/74/5 108/75/5
f 21/76/5 85/77/5 20/78/5
f 25/79/2 2/80/2 72/81/2
f 22/82/2 85/83/2 69/84/2
f 124/85/4 89/86/4 47/87/4
f 10/88/5 79/89/5 104/90/5
f 93/91/2 51/92/2 50/93/2
f 79/94/6 41/95/6 109/96/6
f 11/97/6 57/98/6 107/99/6
f 80/100/1 53/101/1 75/102/1
f 8/103/2 75/104/2 53/105/2
f 105/106/2 10/107/2 104/108/2
f 82/109/5 1/110/5 68/111/5
f 14/112/4 53/113/4 61/114/4
f 87/115/3 36/116/3 88/117/3
f 122/118/6 81/119/6 121/120/6
f 40/121/1 84/122/1 128/123/1
f 34/124/6 15/125/6 112/126/6
f 123/127/6 67/128/6 120/129/6
f 4/130/2 29/131/2 52/132/2
f 110/133/1 103/134/1 106/135/1
f 56/136/4 51/137/4 57/138/4
f 57/139/1 94/140/1 107/141/1
f 113/142/6 62/143/6 116/144/6
f 37/145/4 45/146/4 46/147/4
f 67/148/4 92/149/4 120/150/4
f 58/151/6 77/152/6 108/153/6
f 115/154/3 29/155/3 6/156/3
f 90/157/5 67/158/5 17/159/5
f 126/160/3 70/161/3 19/162/3
f 73/163/1 66/164/1 26/165/1
f 44/166/4 68/167/4 1/168/4
f 15/169/4 52/170/4 112/171/4
f 128/172/6 68/173/6 40/174/6
f 20/175/6 39/176/6 21/177/6
f 13/178/3 30/179/3 76/180/3
f 90/181/2 92/182/2 49/183/2
f 89/184/5 19/185/5 70/186/5
f 78/187/3 103/188/3 9/189/3
f 62/143/4 28/190/4 116/144/4
f 24/191/3 81/192/3 119/193/3
f 38/194/1 22/195/1 39/196/1
f 13/197/6 59/198/6 33/199/6
f 16/200/5 99/201/5 65/202/5
f 121/203/4 48/204/4 122/205/4
f 63/206/6 118/207/6 117/208/6
f 63/209/4 98/210/4 64/211/4
f 3/212/5 63/213/5 117/214/5
f 126/215/1 47/216/1 86/217/1
f 114/218/5 5/219/5 62/220/5
f 83/221/2 44/222/2 1/223/2
f 46/224/1 36/225/1 37/226/1
f 42/227/4 54/228/4 41/229/4
f 16/230/3 73/231/3 96/232/3
f 13/233/5 7/234/5 60/235/5
f 99/236/2 73/237/2 26/238/2
f 23/239/3 17/240/3 123/241/3
f 83/242/3 128/243/3 84/244/3
f 30/245/2 7/246/2 76/247/2
f 111/248/3 75/249/3 101/250/3
f 38/251/4 85/252/4 43/253/4
f 58/254/1 72/255/1 32/256/1
f 118/257/3 3/258/3 117/259/3
f 93/260/3 107/261/3 94/262/3
f 119/263/1 48/264/1 24/265/1
f 41/266/1 105/267/1 109/268/1
f 114/269/3 74/270/3 100/271/3
f 31/272/2 9/273/2 103/274/2
f 19/275/6 124/276/6 126/277/6
f 79/278/3 105/279/3 104/280/3
f 64/281/1 27/282/1 118/283/1
f 125/284/5 45/285/5 127/286/5
f 102/1/1 30/287/1 33/2/1
f 74/4/2 28/288/2 5/5/2
f 70/7/2 86/289/2 47/8/2
f 22/10/3 69/290/3 21/11/3
f 29/13/1 34/291/1 112/14/1
f 98/16/2 97/292/2 3/17/2
f 32/19/3 72/293/3 2/20/3
f 31/22/4 110/294/4 12/23/4
f 60/25/4 7/295/4 102/26/4
f 12/28/5 78/296/5 9/29/5
f 36/31/6 125/297/6 127/32/6
f 121/34/5 81/298/5 71/35/5
f 46/37/2 45/299/2 87/38/2
f 80/40/6 111/300/6 14/41/6
f 110/43/6 106/301/6 78/44/6
f 48/46/2 91/302/2 71/47/2
f 123/49/1 120/303/1 92/50/1
f 56/52/5 11/304/5 93/53/5
f 16/55/6 65/71/6 66/56/6
f 95/58/4 25/305/4 58/59/4
f 113/61/1 116/306/1 28/62/1
f 14/64/5 111/307/5 101/65/5
f 15/67/5 115/308/5 6/68/5
f 26/70/4 66/56/4 65/71/4
f 77/73/5 2/309/5 95/74/5
f 21/76/5 69/310/5 85/77/5
f 25/79/2 95/311/2 2/80/2
f 22/82/2 43/312/2 85/83/2
f 124/85/4 18/313/4 89/86/4
f 10/88/5 42/314/5 79/89/5
f 93/91/2 94/315/2 51/92/2
f 79/94/6 42/316/6 41/95/6
f 11/97/6 56/317/6 57/98/6
f 80/100/1 61/318/1 53/101/1
f 8/103/2 101/319/2 75/104/2
f 105/106/2 54/320/2 10/107/2
f 82/109/5 83/321/5 1/110/5
f 14/112/4 8/322/4 53/113/4
f 87/115/3 125/323/3 36/116/3
f 122/118/6 119/324/6 81/119/6
f 40/121/1 44/325/1 84/122/1
f 34/124/6 115/326/6 15/125/6
f 123/127/6 17/327/6 67/128/6
f 4/130/2 6/328/2 29/131/2
f 110/133/1 31/329/1 103/134/1
f 56/136/4 50/330/4 51/137/4
f 57/139/1 51/331/1 94/140/1
f 113/142/6 114/332/6 62/143/6
f 37/145/4 127/333/4 45/146/4
f 67/148/4 49/334/4 92/149/4
f 58/151/6 32/335/6 77/152/6
f 115/154/3 34/336/3 29/155/3
f 90/157/5 49/337/5 67/158/5
f 126/160/3 86/338/3 70/161/3
f 73/163/1 35/339/1 66/164/1
f 44/166/4 40/340/4 68/167/4
f 15/169/4 4/341/4 52/170/4
f 128/172/6 82/342/6 68/173/6
f 20/175/6 38/343/6 39/176/6
f 13/178/3 33/344/3 30/179/3
f 90/181/2 23/345/2 92/182/2
f 89/184/5 18/346/5 19/185/5
f 78/187/3 106/347/3 103/188/3
f 62/143/4 5/348/4 28/190/4
f 24/191/3 71/349/3 81/192/3
f 38/194/1 43/350/1 22/195/1
f 13/197/6 60/351/6 59/198/6
f 16/200/5 96/352/5 99/201/5
f 121/203/4 91/353/4 48/204/4
f 63/206/6 64/354/6 118/207/6
f 63/209/4 97/355/4 98/210/4
f 3/212/5 97/356/5 63/213/5
f 126/215/1 124/357/1 47/216/1
f 114/218/5 100/358/5 5/219/5
f 83/221/2 84/359/2 44/222/2
f 46/224/1 88/360/1 36/225/1
f 42/227/4 10/361/4 54/228/4
f 16/230/3 35/362/3 73/231/3
f 13/233/5 76/363/5 7/234/5
f 99/236/2 96/364/2 73/237/2
f 23/239/3 90/365/3 17/240/3
f 83/242/3 82/366/3 128/243/3
f 30/245/2 102/367/2 7/246/2
f 111/248/3 80/368/3 75/249/3
f 38/251/4 20/369/4 85/252/4
f 58/254/1 25/370/1 72/255/1
f 118/257/3 27/371/3 3/258/3
f 93/260/3 11/372/3 107/261/3
f 119/263/1 122/373/1 48/264/1
f 41/266/1 54/374/1 105/267/1
f 114/269/3 113/375/3 74/270/3
f 31/272/2 55/376/2 9/273/2
f 19/275/6 18/377/6 124/276/6
f 79/278/3 109/378/3 105/279/3
f 64/281/1 98/379/1 27/282/1
f 125/284/5 87/380/5 45/285/5
