# Blender v3.3.1 OBJ File: ''
# www.blender.org
mtllib ParteIntChocolate.mtl
o ParteIntChocolate
v 8.300000 0.300000 3.100000
v 8.300000 5.500000 -2.500000
v 8.300000 0.300000 -2.900000
v 8.300000 4.900000 -2.500000
v 15.700000 0.300000 3.100000
v 15.700000 0.300000 -2.900000
v 15.700000 4.900000 2.700000
v 15.700000 4.900000 -2.500000
v 15.700000 5.500000 -2.900000
v 15.700000 5.500000 2.700000
v 8.300000 5.500000 -2.900000
v 8.300000 5.500000 2.700000
v 8.300000 5.500000 3.100000
v 8.300000 4.900000 2.700000
v 15.700000 5.500000 -2.500000
v 15.700000 5.500000 3.100000
vt 0.289062 0.406250
vt 0.578125 0.203125
vt 0.578125 0.406250
vt 0.289062 0.406250
vt 0.523438 0.406250
vt 0.304688 0.585938
vt 0.234375 0.437500
vt 0.000000 0.437500
vt 0.218750 0.617188
vt 0.289062 0.234375
vt 0.000000 0.000000
vt 0.000000 0.234375
vt 0.578125 0.632813
vt 0.289062 0.656250
vt 0.289062 0.632813
vt 0.289062 0.656250
vt 0.000000 0.640625
vt 0.289062 0.640625
vt 0.289062 0.000000
vt 0.578125 0.203125
vt 0.578125 0.000000
vt 0.000000 0.656250
vt 0.289062 0.671875
vt 0.000000 0.671875
vt 0.289062 0.632813
vt 0.578125 0.609375
vt 0.289062 0.609375
vt 0.000000 0.234375
vt 0.289062 0.437500
vt 0.000000 0.437500
vt 0.289062 0.203125
vt 0.523438 0.609375
vt 0.507812 0.585938
vt 0.507812 0.609375
vt 0.304688 0.609375
vt 0.289062 0.609375
vt 0.000000 0.640625
vt 0.015625 0.617188
vt 0.015625 0.640625
vt 0.218750 0.640625
vt 0.234375 0.640625
vt 0.289062 0.000000
vt 0.578125 0.656250
vt 0.000000 0.656250
vt 0.289062 0.203125
vt 0.289062 0.656250
vt 0.578125 0.632813
vt 0.289062 0.234375
vn 0.0000 1.0000 0.0000
vn 1.0000 -0.0000 0.0000
vn -1.0000 -0.0000 0.0000
vn 0.0000 -1.0000 0.0000
vn 0.0000 0.0000 1.0000
vn 0.0000 0.0000 -1.0000
usemtl ParteIntChocolate_Material
s off
f 4/1/1 7/2/1 8/3/1
f 5/4/2 6/5/2 7/6/2
f 3/7/3 1/8/3 4/9/3
f 6/10/4 1/11/4 3/12/4
f 8/13/5 2/14/5 4/15/5
f 9/16/1 2/17/1 15/18/1
f 3/19/6 9/20/6 6/21/6
f 13/22/1 10/23/1 12/24/1
f 12/25/6 7/26/6 14/27/6
f 1/28/5 16/29/5 13/30/5
f 4/1/1 14/31/1 7/2/1
f 6/5/2 9/32/2 8/33/2
f 9/32/2 15/34/2 8/33/2
f 10/35/2 16/36/2 7/6/2
f 16/36/2 5/4/2 7/6/2
f 6/5/2 8/33/2 7/6/2
f 1/8/3 13/37/3 14/38/3
f 13/37/3 12/39/3 14/38/3
f 2/40/3 11/41/3 4/9/3
f 11/41/3 3/7/3 4/9/3
f 1/8/3 14/38/3 4/9/3
f 6/10/4 5/42/4 1/11/4
f 8/13/5 15/43/5 2/14/5
f 9/16/1 11/44/1 2/17/1
f 3/19/6 11/45/6 9/20/6
f 13/22/1 16/46/1 10/23/1
f 12/25/6 10/47/6 7/26/6
f 1/28/5 5/48/5 16/29/5
