# Blender v3.3.1 OBJ File: ''
# www.blender.org
mtllib plataformas-4.mtl
o plataformas-4
v 8.600000 5.300000 14.500000
v 9.600000 5.200000 9.100000
v 9.600000 5.300000 14.500000
v 9.600000 5.300000 9.400000
v 0.300000 5.300000 9.100000
v 8.600000 5.300000 9.100000
v 8.600000 5.200000 9.100000
v 0.300000 5.200000 9.100000
v 8.600000 5.200000 15.100000
v 8.600000 0.700000 9.400000
v 8.600000 0.700000 14.200000
v 0.300000 0.700000 9.400000
v 0.100000 5.200000 15.300000
v 0.100000 6.000000 8.300000
v 0.100000 6.000000 14.200000
v 1.200000 5.200000 14.500000
v 9.700000 5.700000 9.400000
v 0.200000 5.700000 14.200000
v 0.200000 5.300000 9.400000
v 0.200000 5.300000 14.200000
v 1.200000 5.300000 9.100000
v 1.200000 5.200000 15.100000
v 1.200000 0.700000 15.100000
v 1.200000 0.700000 14.200000
v 9.500000 0.700000 14.200000
v 9.700000 5.200000 15.300000
v 9.700000 5.700000 14.200000
v 9.700000 6.000000 9.400000
v 0.200000 5.300000 9.100000
v 9.500000 5.200000 9.100000
v 9.600000 5.300000 9.100000
v 9.500000 5.300000 9.100000
v 1.200000 5.300000 9.400000
v 1.200000 5.200000 9.100000
v 9.500000 5.200000 15.100000
v 0.300000 5.200000 15.100000
v 9.500000 0.700000 15.100000
v 9.700000 6.000000 15.300000
v 0.300000 5.300000 9.400000
v 8.600000 5.300000 9.400000
v 0.200000 5.700000 9.400000
v 9.500000 5.300000 9.400000
v 0.100000 5.700000 9.400000
v 0.100000 6.000000 9.400000
v 1.200000 5.300000 14.500000
v 0.200000 5.200000 14.500000
v 0.200000 5.300000 14.500000
v 0.300000 5.300000 14.500000
v 0.300000 5.200000 14.500000
v 9.500000 5.200000 14.500000
v 9.500000 5.300000 14.500000
v 1.200000 5.200000 8.500000
v 1.200000 0.700000 8.500000
v 0.300000 0.700000 14.200000
v 0.100000 5.200000 8.300000
v 9.700000 6.000000 8.300000
v 8.600000 5.300000 14.200000
v 1.200000 5.300000 14.200000
v 9.600000 5.700000 14.200000
v 9.500000 5.300000 14.200000
v 8.600000 5.200000 14.500000
v 8.600000 5.200000 8.500000
v 0.300000 5.200000 8.500000
v 0.200000 5.200000 9.100000
v 9.500000 5.200000 8.500000
v 9.600000 5.200000 14.500000
v 8.600000 0.700000 8.500000
v 8.600000 0.700000 15.100000
v 9.500000 0.700000 8.500000
v 0.300000 0.700000 8.500000
v 0.300000 0.700000 15.100000
v 1.200000 0.700000 9.400000
v 9.500000 0.700000 9.400000
v 9.700000 5.200000 8.300000
v 0.300000 5.300000 14.200000
v 9.600000 5.300000 14.200000
v 9.600000 5.700000 9.400000
v 0.100000 5.700000 14.200000
v 0.100000 6.000000 15.300000
v 9.700000 6.000000 14.200000
vt 0.515625 0.343750
vt 0.550781 0.167969
vt 0.550781 0.343750
vt 0.492188 0.523438
vt 0.480469 0.527344
vt 0.480469 0.347656
vt 0.468750 0.343750
vt 0.445312 0.343750
vt 0.445312 0.167969
vt 0.589844 0.542969
vt 0.585938 0.531250
vt 0.585938 0.542969
vt 0.574219 0.550781
vt 0.585938 0.546875
vt 0.386719 0.550781
vt 0.589844 0.496094
vt 0.593750 0.308594
vt 0.593750 0.496094
vt 0.371094 0.468750
vt 0.375000 0.480469
vt 0.332031 0.453125
vt 0.589844 0.531250
vt 0.585938 0.519531
vt 0.585938 0.531250
vt 0.621094 0.203125
vt 0.585938 0.238281
vt 0.621094 0.238281
vt 0.433594 0.343750
vt 0.445312 0.347656
vt 0.445312 0.167969
vt 0.589844 0.507813
vt 0.585938 0.496094
vt 0.585938 0.507813
vt 0.585938 0.167969
vt 0.550781 0.343750
vt 0.585938 0.343750
vt 0.386719 0.523438
vt 0.410156 0.347656
vt 0.375000 0.347656
vt 0.750000 0.074219
vt 0.375000 0.042969
vt 0.750000 0.042969
vt 0.003906 0.675781
vt 0.000000 0.687500
vt 0.042969 0.660156
vt 0.523438 0.343750
vt 0.519531 0.347656
vt 0.519531 0.343750
vt 0.750000 0.042969
vt 0.375000 0.000000
vt 0.750000 0.000000
vt 0.375000 0.074219
vt 0.750000 0.105469
vt 0.750000 0.074219
vt 0.375000 0.566406
vt 0.664063 0.578125
vt 0.664063 0.566406
vt 0.000000 0.730469
vt 0.375000 0.687500
vt 0.375000 0.730469
vt 0.410156 0.527344
vt 0.421875 0.527344
vt 0.421875 0.523438
vt 0.664063 0.593750
vt 0.375000 0.597656
vt 0.664063 0.597656
vt 0.585938 0.347656
vt 0.550781 0.523438
vt 0.550781 0.347656
vt 0.523438 0.347656
vt 0.527344 0.343750
vt 0.523438 0.343750
vt 0.398438 0.343750
vt 0.410156 0.347656
vt 0.410156 0.167969
vt 0.375000 0.105469
vt 0.648437 0.105469
vt 0.417969 0.125000
vt 0.519531 0.343750
vt 0.515625 0.347656
vt 0.515625 0.343750
vt 0.515625 0.527344
vt 0.519531 0.523438
vt 0.515625 0.523438
vt 0.375000 0.593750
vt 0.664063 0.589844
vt 0.664063 0.593750
vt 0.417969 0.156250
vt 0.605469 0.156250
vt 0.648437 0.136719
vt 0.386719 0.531250
vt 0.375000 0.527344
vt 0.574219 0.531250
vt 0.457031 0.523438
vt 0.457031 0.527344
vt 0.445312 0.527344
vt 0.585938 0.167969
vt 0.621094 0.203125
vt 0.621094 0.167969
vt 0.589844 0.496094
vt 0.585938 0.308594
vt 0.589844 0.308594
vt 0.621094 0.238281
vt 0.585938 0.273438
vt 0.621094 0.273438
vt 0.000000 0.000000
vt 0.000000 0.273437
vt 0.003906 0.031250
vt 0.371094 0.242188
vt 0.375000 0.000000
vt 0.371094 0.031250
vt 0.515625 0.347656
vt 0.503906 0.347656
vt 0.503906 0.343750
vt 0.550781 0.347656
vt 0.515625 0.523438
vt 0.550781 0.523438
vt 0.585938 0.519531
vt 0.589844 0.507813
vt 0.585938 0.507813
vt 0.375000 0.578125
vt 0.664063 0.589844
vt 0.664063 0.578125
vt 0.621094 0.308594
vt 0.585938 0.273438
vt 0.585938 0.308594
vt 0.515625 0.167969
vt 0.515625 0.347656
vt 0.515625 0.523438
vt 0.492188 0.527344
vt 0.480469 0.167969
vt 0.480469 0.347656
vt 0.468750 0.347656
vt 0.589844 0.531250
vt 0.386719 0.566406
vt 0.574219 0.566406
vt 0.585938 0.550781
vt 0.375000 0.546875
vt 0.375000 0.550781
vt 0.589844 0.308594
vt 0.007812 0.273437
vt 0.042969 0.273437
vt 0.042969 0.453125
vt 0.332031 0.273437
vt 0.367187 0.273437
vt 0.007812 0.453125
vt 0.367187 0.453125
vt 0.003906 0.453125
vt 0.003906 0.468750
vt 0.371094 0.453125
vt 0.000000 0.480469
vt 0.000000 0.468750
vt 0.375000 0.468750
vt 0.589844 0.519531
vt 0.585938 0.203125
vt 0.410156 0.167969
vt 0.410156 0.343750
vt 0.433594 0.347656
vt 0.589844 0.496094
vt 0.550781 0.167969
vt 0.375000 0.527344
vt 0.386719 0.527344
vt 0.410156 0.523438
vt 0.375000 0.074219
vt 0.367187 0.480469
vt 0.332031 0.480469
vt 0.332031 0.660156
vt 0.042969 0.480469
vt 0.007812 0.480469
vt 0.367187 0.660156
vt 0.007812 0.660156
vt 0.371094 0.660156
vt 0.371094 0.675781
vt 0.003906 0.660156
vt 0.375000 0.687500
vt 0.375000 0.675781
vt 0.000000 0.675781
vt 0.523438 0.347656
vt 0.375000 0.042969
vt 0.375000 0.105469
vt 0.375000 0.578125
vt 0.000000 0.687500
vt 0.445312 0.523438
vt 0.445312 0.347656
vt 0.410156 0.347656
vt 0.375000 0.593750
vt 0.585938 0.523438
vt 0.527344 0.347656
vt 0.375000 0.167969
vt 0.375000 0.343750
vt 0.398438 0.347656
vt 0.417969 0.136719
vt 0.375000 0.136719
vt 0.648437 0.136719
vt 0.605469 0.125000
vt 0.605469 0.136719
vt 0.519531 0.347656
vt 0.519531 0.527344
vt 0.375000 0.589844
vt 0.605469 0.167969
vt 0.648437 0.167969
vt 0.375000 0.136719
vt 0.375000 0.167969
vt 0.417969 0.167969
vt 0.574219 0.546875
vt 0.386719 0.546875
vt 0.375000 0.531250
vt 0.585938 0.527344
vt 0.585938 0.531250
vt 0.445312 0.347656
vt 0.480469 0.347656
vt 0.480469 0.523438
vt 0.585938 0.203125
vt 0.585938 0.496094
vt 0.585938 0.238281
vt 0.375000 0.273437
vt 0.367187 0.265625
vt 0.367187 0.242188
vt 0.367187 0.031250
vt 0.367187 0.007813
vt 0.332031 0.265625
vt 0.332031 0.242188
vt 0.042969 0.242188
vt 0.332031 0.007813
vt 0.042969 0.031250
vt 0.332031 0.031250
vt 0.042969 0.265625
vt 0.007812 0.265625
vt 0.007812 0.242188
vt 0.003906 0.242188
vt 0.042969 0.007813
vt 0.007812 0.031250
vt 0.007812 0.007813
vt 0.480469 0.343750
vt 0.480469 0.167969
vt 0.515625 0.167969
vt 0.515625 0.347656
vt 0.589844 0.519531
vt 0.375000 0.589844
vt 0.621094 0.273438
vn 0.0000 0.0000 1.0000
vn 1.0000 0.0000 0.0000
vn 0.0000 -1.0000 0.0000
vn -1.0000 0.0000 0.0000
vn 0.0000 1.0000 0.0000
vn 0.0000 0.0000 -1.0000
usemtl plataformas-4_Material
s off
f 36/1/1 23/2/1 22/3/1
f 34/4/2 33/5/2 72/6/2
f 50/7/2 35/8/2 37/9/2
f 5/10/3 19/11/3 29/12/3
f 4/13/4 2/14/4 76/15/4
f 77/16/5 27/17/5 17/18/5
f 77/19/1 28/20/1 40/21/1
f 31/22/3 42/23/3 32/24/3
f 37/25/3 11/26/3 25/27/3
f 49/28/4 75/29/4 54/30/4
f 75/31/3 47/32/3 20/33/3
f 69/34/6 62/35/6 65/36/6
f 7/37/4 67/38/4 10/39/4
f 38/40/1 13/41/1 26/42/1
f 18/43/6 15/44/6 58/45/6
f 8/46/1 29/47/1 64/48/1
f 56/49/5 44/50/5 28/51/5
f 55/52/6 56/53/6 74/54/6
f 45/55/3 57/56/3 1/57/3
f 15/58/5 38/59/5 80/60/5
f 39/61/4 5/62/4 8/63/4
f 61/64/6 45/65/6 1/66/6
f 37/67/1 9/68/1 68/69/1
f 51/70/6 66/71/6 50/72/6
f 61/73/4 57/74/4 11/75/4
f 26/76/2 74/77/2 27/78/2
f 2/79/1 32/80/1 30/81/1
f 47/82/6 49/83/6 46/84/6
f 21/85/1 7/86/1 6/87/1
f 78/88/4 43/89/4 55/90/4
f 20/91/2 46/92/2 19/93/2
f 30/94/2 32/95/2 42/96/2
f 71/97/3 24/98/3 23/99/3
f 41/100/5 78/101/5 18/102/5
f 72/103/3 70/104/3 53/105/3
f 13/106/3 55/107/3 46/108/3
f 2/109/3 26/110/3 66/111/3
f 58/112/2 45/113/2 16/114/2
f 53/115/6 63/116/6 52/117/6
f 60/118/3 3/119/3 51/120/3
f 33/121/3 6/122/3 40/123/3
f 69/124/3 10/125/3 67/126/3
f 36/1/1 71/127/1 23/2/1
f 72/6/2 53/128/2 34/4/2
f 53/128/2 52/129/2 34/4/2
f 34/4/2 21/130/2 33/5/2
f 37/9/2 25/131/2 50/7/2
f 25/131/2 60/132/2 50/7/2
f 60/132/2 51/133/2 50/7/2
f 5/10/3 39/134/3 19/11/3
f 59/135/4 77/136/4 4/13/4
f 4/13/4 31/137/4 2/14/4
f 2/14/4 66/138/4 76/15/4
f 66/138/4 3/139/4 76/15/4
f 76/15/4 59/135/4 4/13/4
f 77/16/5 59/140/5 27/17/5
f 12/141/1 72/142/1 33/143/1
f 40/21/1 10/144/1 73/145/1
f 39/146/1 12/141/1 33/143/1
f 40/21/1 73/145/1 42/147/1
f 19/148/1 39/146/1 41/149/1
f 39/146/1 33/143/1 41/149/1
f 40/21/1 42/147/1 77/19/1
f 42/147/1 4/150/1 77/19/1
f 41/149/1 33/143/1 44/151/1
f 33/143/1 40/21/1 44/151/1
f 44/151/1 43/152/1 41/149/1
f 17/153/1 28/20/1 77/19/1
f 28/20/1 44/151/1 40/21/1
f 31/22/3 4/154/3 42/23/3
f 37/25/3 68/155/3 11/26/3
f 54/30/4 71/156/4 49/28/4
f 71/156/4 36/157/4 49/28/4
f 49/28/4 48/158/4 75/29/4
f 75/31/3 48/159/3 47/32/3
f 69/34/6 67/160/6 62/35/6
f 10/39/4 40/161/4 7/37/4
f 40/161/4 6/162/4 7/37/4
f 7/37/4 62/163/4 67/38/4
f 38/40/1 79/164/1 13/41/1
f 25/165/6 11/166/6 57/167/6
f 58/45/6 24/168/6 54/169/6
f 60/170/6 25/165/6 57/167/6
f 58/45/6 54/169/6 75/171/6
f 76/172/6 60/170/6 59/173/6
f 60/170/6 57/167/6 59/173/6
f 58/45/6 75/171/6 18/43/6
f 75/171/6 20/174/6 18/43/6
f 59/173/6 57/167/6 80/175/6
f 57/167/6 58/45/6 80/175/6
f 80/175/6 27/176/6 59/173/6
f 78/177/6 15/44/6 18/43/6
f 15/44/6 80/175/6 58/45/6
f 8/46/1 5/178/1 29/47/1
f 56/49/5 14/179/5 44/50/5
f 55/52/6 14/180/6 56/53/6
f 45/55/3 58/181/3 57/56/3
f 15/58/5 79/182/5 38/59/5
f 8/63/4 63/183/4 70/184/4
f 70/184/4 12/185/4 8/63/4
f 12/185/4 39/61/4 8/63/4
f 61/64/6 16/186/6 45/65/6
f 37/67/1 35/187/1 9/68/1
f 51/70/6 3/188/6 66/71/6
f 11/75/4 68/189/4 61/73/4
f 68/189/4 9/190/4 61/73/4
f 61/73/4 1/191/4 57/74/4
f 80/192/2 38/193/2 27/78/2
f 38/193/2 26/76/2 27/78/2
f 74/77/2 56/194/2 17/195/2
f 56/194/2 28/196/2 17/195/2
f 74/77/2 17/195/2 27/78/2
f 2/79/1 31/197/1 32/80/1
f 47/82/6 48/198/6 49/83/6
f 21/85/1 34/199/1 7/86/1
f 43/89/4 44/200/4 14/201/4
f 13/202/4 79/203/4 78/88/4
f 79/203/4 15/204/4 78/88/4
f 43/89/4 14/201/4 55/90/4
f 13/202/4 78/88/4 55/90/4
f 41/205/2 18/206/2 20/91/2
f 20/91/2 47/207/2 46/92/2
f 46/92/2 64/208/2 19/93/2
f 64/208/2 29/209/2 19/93/2
f 19/93/2 41/205/2 20/91/2
f 42/96/2 73/210/2 30/94/2
f 73/210/2 69/211/2 30/94/2
f 69/211/2 65/212/2 30/94/2
f 71/97/3 54/213/3 24/98/3
f 41/100/5 43/214/5 78/101/5
f 72/103/3 12/215/3 70/104/3
f 74/216/3 2/109/3 65/217/3
f 2/109/3 30/218/3 65/217/3
f 50/219/3 66/111/3 35/220/3
f 66/111/3 26/110/3 35/220/3
f 55/107/3 74/216/3 62/221/3
f 74/216/3 65/217/3 62/221/3
f 62/221/3 7/222/3 34/223/3
f 35/220/3 26/110/3 9/224/3
f 26/110/3 13/106/3 9/224/3
f 16/225/3 61/226/3 9/224/3
f 62/221/3 34/223/3 52/227/3
f 63/228/3 8/229/3 64/230/3
f 55/107/3 62/221/3 52/227/3
f 55/107/3 52/227/3 63/228/3
f 22/231/3 16/225/3 9/224/3
f 46/108/3 49/232/3 36/233/3
f 22/231/3 9/224/3 13/106/3
f 36/233/3 22/231/3 13/106/3
f 55/107/3 63/228/3 64/230/3
f 46/108/3 36/233/3 13/106/3
f 55/107/3 64/230/3 46/108/3
f 2/109/3 74/216/3 26/110/3
f 16/114/2 22/234/2 23/235/2
f 23/235/2 24/236/2 16/114/2
f 24/236/2 58/112/2 16/114/2
f 53/115/6 70/237/6 63/116/6
f 60/118/3 76/238/3 3/119/3
f 33/121/3 21/239/3 6/122/3
f 69/124/3 73/240/3 10/125/3
