# Blender v3.3.1 OBJ File: ''
# www.blender.org
mtllib Untitled.mtl
o Untitled
v -0.900000 -0.000000 1.400000
v -0.900000 0.400000 1.400000
v 0.800000 -0.000000 1.400000
v 0.800000 -0.000000 0.100000
v 0.800000 0.400000 0.100000
v 0.800000 0.400000 1.400000
v -0.900000 -0.000000 0.100000
v -0.900000 0.400000 0.100000
vt 0.485714 0.857143
vt 0.000000 0.742857
vt 0.000000 0.857143
vt 0.600000 0.114286
vt 0.714286 0.485714
vt 0.714286 0.114286
vt 0.600000 0.114286
vt 0.485714 0.485714
vt 0.485714 0.114286
vt 0.485714 0.000000
vt 0.000000 0.371429
vt 0.000000 0.000000
vt 0.485714 0.114286
vt 0.971429 0.000000
vt 0.971429 0.114286
vt 0.485714 0.371429
vt 0.000000 0.742857
vt 0.485714 0.742857
vt 0.485714 0.742857
vt 0.600000 0.485714
vt 0.600000 0.485714
vt 0.485714 0.371429
vt 0.485714 0.000000
vt 0.000000 0.371429
vn 0.0000 0.0000 -1.0000
vn -1.0000 -0.0000 0.0000
vn 1.0000 0.0000 0.0000
vn 0.0000 -1.0000 -0.0000
vn 0.0000 -0.0000 1.0000
vn 0.0000 1.0000 0.0000
usemtl Untitled_Material
s off
f 5/1/1 7/2/1 8/3/1
f 7/4/2 2/5/2 8/6/2
f 5/7/3 3/8/3 4/9/3
f 4/10/4 1/11/4 7/12/4
f 2/13/5 3/14/5 6/15/5
f 5/16/6 2/17/6 6/18/6
f 5/1/1 4/19/1 7/2/1
f 7/4/2 1/20/2 2/5/2
f 5/7/3 6/21/3 3/8/3
f 4/10/4 3/22/4 1/11/4
f 2/13/5 1/23/5 3/14/5
f 5/16/6 8/24/6 2/17/6
